<svg width="40" height="40" viewBox="0 0 40 40" fill="none" xmlns="http://www.w3.org/2000/svg">
<rect x="0.5" y="0.5" width="39" height="39" rx="19.5" stroke="#0F0F0F" stroke-opacity="0.3"/>
<rect x="0.5" y="0.5" width="39" height="39" rx="19.5" stroke="#E6823D" stroke-opacity="0.03"/>
<path d="M20 9.5C17.8127 9.50248 15.7157 10.3725 14.1691 11.9191C12.6225 13.4657 11.7525 15.5627 11.75 17.75C11.75 24.8094 19.25 30.1437 19.5688 30.3687C19.6965 30.4538 19.8465 30.4992 20 30.4992C20.1535 30.4992 20.3035 30.4538 20.4313 30.3687C20.75 30.1437 28.25 24.8094 28.25 17.75C28.2475 15.5627 27.3775 13.4657 25.8309 11.9191C24.2843 10.3725 22.1873 9.50248 20 9.5ZM20 14.75C20.5933 14.75 21.1734 14.9259 21.6667 15.2556C22.1601 15.5852 22.5446 16.0538 22.7716 16.6019C22.9987 17.1501 23.0581 17.7533 22.9424 18.3353C22.8266 18.9172 22.5409 19.4518 22.1213 19.8713C21.7018 20.2909 21.1672 20.5766 20.5853 20.6924C20.0033 20.8081 19.4001 20.7487 18.8519 20.5216C18.3038 20.2946 17.8352 19.9101 17.5056 19.4167C17.1759 18.9234 17 18.3433 17 17.75C17 16.9543 17.3161 16.1913 17.8787 15.6287C18.4413 15.0661 19.2044 14.75 20 14.75Z" fill="#0F0F0F"/>
<path d="M20 9.5C17.8127 9.50248 15.7157 10.3725 14.1691 11.9191C12.6225 13.4657 11.7525 15.5627 11.75 17.75C11.75 24.8094 19.25 30.1437 19.5688 30.3687C19.6965 30.4538 19.8465 30.4992 20 30.4992C20.1535 30.4992 20.3035 30.4538 20.4313 30.3687C20.75 30.1437 28.25 24.8094 28.25 17.75C28.2475 15.5627 27.3775 13.4657 25.8309 11.9191C24.2843 10.3725 22.1873 9.50248 20 9.5ZM20 14.75C20.5933 14.75 21.1734 14.9259 21.6667 15.2556C22.1601 15.5852 22.5446 16.0538 22.7716 16.6019C22.9987 17.1501 23.0581 17.7533 22.9424 18.3353C22.8266 18.9172 22.5409 19.4518 22.1213 19.8713C21.7018 20.2909 21.1672 20.5766 20.5853 20.6924C20.0033 20.8081 19.4001 20.7487 18.8519 20.5216C18.3038 20.2946 17.8352 19.9101 17.5056 19.4167C17.1759 18.9234 17 18.3433 17 17.75C17 16.9543 17.3161 16.1913 17.8787 15.6287C18.4413 15.0661 19.2044 14.75 20 14.75Z" fill="#E6823D" fill-opacity="0.03"/>
</svg>
