<svg width="40" height="40" viewBox="0 0 40 40" fill="none" xmlns="http://www.w3.org/2000/svg">
<rect x="0.5" y="0.5" width="39" height="39" rx="19.5" stroke="#0F0F0F" stroke-opacity="0.3"/>
<rect x="0.5" y="0.5" width="39" height="39" rx="19.5" stroke="#E6823D" stroke-opacity="0.03"/>
<path d="M28.8125 22.8499L24.4156 20.9749C24.1888 20.8732 23.9397 20.831 23.692 20.8524C23.4443 20.8737 23.2061 20.9578 23 21.0968L20.6469 22.6624C19.2127 21.9658 18.0516 20.8113 17.3469 19.3811V19.3811L18.9031 16.9999C19.0412 16.7935 19.1255 16.5559 19.1484 16.3087C19.1713 16.0615 19.1321 15.8125 19.0344 15.5843L17.15 11.1874C17.0185 10.8905 16.7959 10.6432 16.5144 10.4814C16.2328 10.3195 15.9071 10.2516 15.5844 10.2874C14.3184 10.4532 13.1557 11.0732 12.3124 12.0319C11.4692 12.9907 11.0028 14.2231 11 15.4999C11 22.9436 17.0562 28.9999 24.5 28.9999C25.7768 28.9971 27.0092 28.5307 27.9679 27.6875C28.9267 26.8442 29.5467 25.6815 29.7125 24.4155C29.7483 24.0928 29.6803 23.767 29.5185 23.4855C29.3567 23.204 29.1094 22.9814 28.8125 22.8499Z" fill="#0F0F0F"/>
<path d="M28.8125 22.8499L24.4156 20.9749C24.1888 20.8732 23.9397 20.831 23.692 20.8524C23.4443 20.8737 23.2061 20.9578 23 21.0968L20.6469 22.6624C19.2127 21.9658 18.0516 20.8113 17.3469 19.3811V19.3811L18.9031 16.9999C19.0412 16.7935 19.1255 16.5559 19.1484 16.3087C19.1713 16.0615 19.1321 15.8125 19.0344 15.5843L17.15 11.1874C17.0185 10.8905 16.7959 10.6432 16.5144 10.4814C16.2328 10.3195 15.9071 10.2516 15.5844 10.2874C14.3184 10.4532 13.1557 11.0732 12.3124 12.0319C11.4692 12.9907 11.0028 14.2231 11 15.4999C11 22.9436 17.0562 28.9999 24.5 28.9999C25.7768 28.9971 27.0092 28.5307 27.9679 27.6875C28.9267 26.8442 29.5467 25.6815 29.7125 24.4155C29.7483 24.0928 29.6803 23.767 29.5185 23.4855C29.3567 23.204 29.1094 22.9814 28.8125 22.8499Z" fill="#E6823D" fill-opacity="0.03"/>
</svg>
