<svg width="24" height="25" viewBox="0 0 24 25" fill="none" xmlns="http://www.w3.org/2000/svg">
<path d="M12.0017 2.43896C10.6895 2.44052 9.3911 2.70668 8.1841 3.22154C6.97711 3.7364 5.88634 4.48938 4.97703 5.43546C4.06771 6.38153 3.35852 7.50127 2.89187 8.7277C2.42522 9.95414 2.21069 11.2621 2.26111 12.5733C2.45799 17.7015 6.66736 21.8358 11.8049 21.939C13.5265 21.9725 15.2262 21.5495 16.7313 20.713C18.2364 19.8764 19.4931 18.6562 20.3736 17.1765C20.4105 17.115 20.4289 17.0442 20.4268 16.9725C20.4247 16.9009 20.402 16.8313 20.3616 16.7721C20.3211 16.7129 20.2646 16.6666 20.1986 16.6385C20.1326 16.6105 20.0599 16.602 19.9892 16.614C19.7045 16.6643 19.4159 16.6893 19.1267 16.689C17.4111 16.689 16.4549 15.939 15.9486 15.3108C15.8317 15.1621 15.7252 15.0055 15.6299 14.8421C15.176 15.4639 14.5702 15.9588 13.8704 16.2796C13.1707 16.6004 12.4003 16.7363 11.633 16.6744C10.8657 16.6124 10.1271 16.3546 9.48787 15.9257C8.84864 15.4968 8.33012 14.9111 7.9819 14.2245C7.63368 13.538 7.4674 12.7736 7.49897 12.0044C7.53053 11.2353 7.75888 10.4871 8.16219 9.83139C8.56549 9.17569 9.13026 8.63442 9.80249 8.25932C10.4747 7.88422 11.2319 7.68784 12.0017 7.68896C13.1106 7.68558 14.1806 8.09688 15.0017 8.84209V8.46709C14.9987 8.27247 15.0695 8.08393 15.2 7.93951C15.3305 7.7951 15.5109 7.70556 15.7049 7.68896C15.8072 7.68255 15.9098 7.69721 16.0063 7.73202C16.1028 7.76683 16.1911 7.82106 16.2658 7.89135C16.3404 7.96164 16.3999 8.04651 16.4405 8.1407C16.4811 8.23489 16.5019 8.3364 16.5017 8.43896V12.189C16.5017 13.5577 16.9611 15.189 19.1267 15.189C21.2924 15.189 21.7142 13.6702 21.7517 12.3296V12.189C21.7493 9.60387 20.7212 7.12536 18.8933 5.29742C17.0653 3.46947 14.5868 2.44145 12.0017 2.43896V2.43896Z" fill="white"/>
<path d="M12.0017 2.43896C10.6895 2.44052 9.3911 2.70668 8.1841 3.22154C6.97711 3.7364 5.88634 4.48938 4.97703 5.43546C4.06771 6.38153 3.35852 7.50127 2.89187 8.7277C2.42522 9.95414 2.21069 11.2621 2.26111 12.5733C2.45799 17.7015 6.66736 21.8358 11.8049 21.939C13.5265 21.9725 15.2262 21.5495 16.7313 20.713C18.2364 19.8764 19.4931 18.6562 20.3736 17.1765C20.4105 17.115 20.4289 17.0442 20.4268 16.9725C20.4247 16.9009 20.402 16.8313 20.3616 16.7721C20.3211 16.7129 20.2646 16.6666 20.1986 16.6385C20.1326 16.6105 20.0599 16.602 19.9892 16.614C19.7045 16.6643 19.4159 16.6893 19.1267 16.689C17.4111 16.689 16.4549 15.939 15.9486 15.3108C15.8317 15.1621 15.7252 15.0055 15.6299 14.8421C15.176 15.4639 14.5702 15.9588 13.8704 16.2796C13.1707 16.6004 12.4003 16.7363 11.633 16.6744C10.8657 16.6124 10.1271 16.3546 9.48787 15.9257C8.84864 15.4968 8.33012 14.9111 7.9819 14.2245C7.63368 13.538 7.4674 12.7736 7.49897 12.0044C7.53053 11.2353 7.75888 10.4871 8.16219 9.83139C8.56549 9.17569 9.13026 8.63442 9.80249 8.25932C10.4747 7.88422 11.2319 7.68784 12.0017 7.68896C13.1106 7.68558 14.1806 8.09688 15.0017 8.84209V8.46709C14.9987 8.27247 15.0695 8.08393 15.2 7.93951C15.3305 7.7951 15.5109 7.70556 15.7049 7.68896C15.8072 7.68255 15.9098 7.69721 16.0063 7.73202C16.1028 7.76683 16.1911 7.82106 16.2658 7.89135C16.3404 7.96164 16.3999 8.04651 16.4405 8.1407C16.4811 8.23489 16.5019 8.3364 16.5017 8.43896V12.189C16.5017 13.5577 16.9611 15.189 19.1267 15.189C21.2924 15.189 21.7142 13.6702 21.7517 12.3296V12.189C21.7493 9.60387 20.7212 7.12536 18.8933 5.29742C17.0653 3.46947 14.5868 2.44145 12.0017 2.43896V2.43896Z" fill="#E6823D" fill-opacity="0.03"/>
<path d="M12 15.189C13.6569 15.189 15 13.8458 15 12.189C15 10.5321 13.6569 9.18896 12 9.18896C10.3431 9.18896 9 10.5321 9 12.189C9 13.8458 10.3431 15.189 12 15.189Z" fill="white"/>
<path d="M12 15.189C13.6569 15.189 15 13.8458 15 12.189C15 10.5321 13.6569 9.18896 12 9.18896C10.3431 9.18896 9 10.5321 9 12.189C9 13.8458 10.3431 15.189 12 15.189Z" fill="#E6823D" fill-opacity="0.03"/>
</svg>
