<svg width="21" height="21" viewBox="0 0 24 25" fill="none" xmlns="http://www.w3.org/2000/svg">
<path d="M12 15.7583C13.6569 15.7583 15 14.4152 15 12.7583C15 11.1014 13.6569 9.7583 12 9.7583C10.3431 9.7583 9 11.1014 9 12.7583C9 14.4152 10.3431 15.7583 12 15.7583Z" fill="#FFFBFA"/>
<path d="M16.125 3.3833H7.875C6.48261 3.3833 5.14726 3.93642 4.16269 4.92099C3.17812 5.90556 2.625 7.24091 2.625 8.6333V16.8833C2.625 18.2757 3.17812 19.611 4.16269 20.5956C5.14726 21.5802 6.48261 22.1333 7.875 22.1333H16.125C17.5174 22.1333 18.8527 21.5802 19.8373 20.5956C20.8219 19.611 21.375 18.2757 21.375 16.8833V8.6333C21.375 7.24091 20.8219 5.90556 19.8373 4.92099C18.8527 3.93642 17.5174 3.3833 16.125 3.3833V3.3833ZM12 17.2583C11.11 17.2583 10.24 16.9944 9.49993 16.4999C8.75991 16.0054 8.18314 15.3026 7.84254 14.4804C7.50195 13.6581 7.41283 12.7533 7.58647 11.8804C7.7601 11.0075 8.18868 10.2057 8.81802 9.57632C9.44736 8.94698 10.2492 8.5184 11.1221 8.34477C11.995 8.17113 12.8998 8.26025 13.7221 8.60084C14.5443 8.94144 15.2471 9.51821 15.7416 10.2582C16.2361 10.9983 16.5 11.8683 16.5 12.7583C16.5 13.9518 16.0259 15.0964 15.182 15.9403C14.3381 16.7842 13.1935 17.2583 12 17.2583ZM16.875 9.0083C16.6525 9.0083 16.435 8.94232 16.25 8.8187C16.065 8.69509 15.9208 8.51939 15.8356 8.31382C15.7505 8.10825 15.7282 7.88205 15.7716 7.66382C15.815 7.4456 15.9222 7.24514 16.0795 7.08781C16.2368 6.93047 16.4373 6.82333 16.6555 6.77992C16.8738 6.73651 17.1 6.75879 17.3055 6.84394C17.5111 6.92908 17.6868 7.07328 17.8104 7.25828C17.934 7.44329 18 7.6608 18 7.8833C18 8.18167 17.8815 8.46782 17.6705 8.6788C17.4595 8.88977 17.1734 9.0083 16.875 9.0083Z" fill="#FFFBFA"/>
</svg>
