<svg width="19" height="20" viewBox="0 0 19 20" fill="none" xmlns="http://www.w3.org/2000/svg">
<path d="M17.8125 13.2808L13.4156 11.4058C13.1888 11.3041 12.9397 11.2619 12.692 11.2833C12.4443 11.3046 12.2061 11.3887 12 11.5277L9.64687 13.0933C8.21273 12.3968 7.05158 11.2422 6.34687 9.81204V9.81204L7.90312 7.43079C8.04116 7.22443 8.12547 6.98685 8.14839 6.73964C8.17131 6.49242 8.13212 6.24339 8.03437 6.01517L6.15 1.61829C6.01851 1.3214 5.79586 1.07411 5.51435 0.912284C5.23284 0.750458 4.90711 0.68251 4.58437 0.718294C3.31837 0.884141 2.15566 1.50408 1.31243 2.46285C0.469194 3.42162 0.00281471 4.65397 0 5.93079C0 13.3745 6.05625 19.4308 13.5 19.4308C14.7768 19.428 16.0092 18.9616 16.9679 18.1184C17.9267 17.2751 18.5467 16.1124 18.7125 14.8464C18.7483 14.5237 18.6803 14.1979 18.5185 13.9164C18.3567 13.6349 18.1094 13.4123 17.8125 13.2808Z" fill="white"/>
<path d="M17.8125 13.2808L13.4156 11.4058C13.1888 11.3041 12.9397 11.2619 12.692 11.2833C12.4443 11.3046 12.2061 11.3887 12 11.5277L9.64687 13.0933C8.21273 12.3968 7.05158 11.2422 6.34687 9.81204V9.81204L7.90312 7.43079C8.04116 7.22443 8.12547 6.98685 8.14839 6.73964C8.17131 6.49242 8.13212 6.24339 8.03437 6.01517L6.15 1.61829C6.01851 1.3214 5.79586 1.07411 5.51435 0.912284C5.23284 0.750458 4.90711 0.68251 4.58437 0.718294C3.31837 0.884141 2.15566 1.50408 1.31243 2.46285C0.469194 3.42162 0.00281471 4.65397 0 5.93079C0 13.3745 6.05625 19.4308 13.5 19.4308C14.7768 19.428 16.0092 18.9616 16.9679 18.1184C17.9267 17.2751 18.5467 16.1124 18.7125 14.8464C18.7483 14.5237 18.6803 14.1979 18.5185 13.9164C18.3567 13.6349 18.1094 13.4123 17.8125 13.2808Z" fill="#E6823D" fill-opacity="0.03"/>
</svg>
