<svg width="17" height="20" viewBox="0 0 20 21" fill="none" xmlns="http://www.w3.org/2000/svg">
<path d="M19.75 6.6333V10.3833C19.75 10.5822 19.671 10.773 19.5303 10.9136C19.3897 11.0543 19.1989 11.1333 19 11.1333C17.4333 11.1374 15.8891 10.761 14.5 10.0364V13.3833C14.5002 14.7388 14.1137 16.0662 13.3859 17.2098C12.6581 18.3533 11.6192 19.2655 10.3911 19.8393C9.16307 20.4131 7.79681 20.6247 6.45272 20.4492C5.10863 20.2738 3.84248 19.7186 2.80287 18.8487C1.76327 17.9789 0.993358 16.8306 0.583504 15.5385C0.17365 14.2465 0.140863 12.8643 0.488989 11.5543C0.837116 10.2443 1.55171 9.06072 2.5489 8.14258C3.54609 7.22444 4.78449 6.6098 6.11875 6.3708C6.2258 6.35159 6.33575 6.3559 6.44098 6.38342C6.5462 6.41094 6.64418 6.46101 6.72812 6.53018C6.81465 6.60001 6.88411 6.68866 6.93123 6.78939C6.97834 6.89011 7.00186 7.00025 7 7.11143V11.0114C7.0004 11.1534 6.95996 11.2926 6.8835 11.4123C6.80704 11.5319 6.69778 11.6271 6.56875 11.6864C6.26608 11.8306 6.00759 12.0533 5.82022 12.3312C5.63284 12.6092 5.52342 12.9324 5.50336 13.267C5.4833 13.6017 5.55334 13.9356 5.70616 14.234C5.85899 14.5324 6.08903 14.7843 6.37231 14.9636C6.65559 15.1429 6.98176 15.2429 7.31685 15.2533C7.65193 15.2637 7.98368 15.1841 8.27753 15.0227C8.57139 14.8613 8.8166 14.6241 8.98764 14.3358C9.15867 14.0475 9.24927 13.7185 9.25 13.3833V1.3833C9.25 1.18439 9.32902 0.993623 9.46967 0.852971C9.61032 0.712318 9.80109 0.633301 10 0.633301H13.75C13.9489 0.633301 14.1397 0.712318 14.2803 0.852971C14.421 0.993623 14.5 1.18439 14.5 1.3833C14.5 2.57677 14.9741 3.72137 15.818 4.56528C16.6619 5.40919 17.8065 5.8833 19 5.8833C19.1989 5.8833 19.3897 5.96232 19.5303 6.10297C19.671 6.24362 19.75 6.43439 19.75 6.6333Z" fill="#FFFBFA"/>
</svg>
