<?xml version="1.0" standalone="no"?>
<!DOCTYPE svg PUBLIC "-//W3C//DTD SVG 20010904//EN"
 "http://www.w3.org/TR/2001/REC-SVG-20010904/DTD/svg10.dtd">
<svg version="1.0" xmlns="http://www.w3.org/2000/svg"
 width="383.000000pt" height="652.000000pt" viewBox="0 0 383.000000 652.000000"
 preserveAspectRatio="xMidYMid meet">

<g transform="translate(0.000000,652.000000) scale(0.100000,-0.100000)"
fill="#803D0E" stroke="none">
<path d="M1655 6500 c-178 -33 -364 -103 -515 -193 -115 -69 -184 -123 -283
-220 -230 -226 -352 -443 -435 -777 l-26 -105 -3 -1373 -4 -1372 1523 2 1523
3 0 1365 0 1365 -28 110 c-42 168 -64 230 -124 353 -103 210 -206 344 -394
511 -25 23 -51 41 -57 41 -6 0 -12 4 -14 8 -17 40 -285 177 -453 230 -225 72
-495 92 -710 52z m594 -141 c179 -45 350 -126 496 -234 69 -51 265 -240 265
-254 0 -5 9 -19 21 -32 100 -114 226 -393 260 -574 14 -74 30 -516 22 -617
l-6 -88 -43 0 -44 0 0 216 c0 240 -14 433 -36 509 -9 28 -22 73 -29 102 -33
121 -120 285 -218 413 -133 172 -377 353 -557 411 -36 12 -78 27 -95 34 -119
51 -449 66 -625 27 -187 -40 -380 -125 -517 -226 -291 -215 -481 -548 -523
-914 -13 -115 -13 -1084 0 -1167 34 -216 196 -400 405 -459 98 -29 90 -7 90
-237 l0 -204 -294 -3 c-204 -1 -297 1 -301 9 -12 18 -1 2055 11 2144 38 287
219 620 447 821 198 174 335 246 627 330 41 12 114 19 235 23 200 7 289 0 409
-30z m-190 -193 c19 -3 36 -8 39 -10 8 -9 -25 -46 -154 -168 -127 -122 -131
-125 -193 -137 -35 -7 -89 -23 -119 -37 -52 -23 -82 -30 -82 -19 0 3 24 74 54
157 30 84 57 163 61 175 7 26 20 30 130 42 80 9 200 8 264 -3z m386 -117 c100
-51 200 -120 200 -139 0 -10 -26 -23 -70 -38 -38 -12 -104 -34 -145 -48 -155
-53 -133 -53 -265 6 -11 5 -46 14 -77 20 -32 6 -58 17 -58 23 0 13 188 200
229 229 21 15 27 15 65 2 22 -8 77 -33 121 -55z m-945 28 c0 -8 -16 -58 -36
-113 -20 -54 -49 -141 -66 -193 -34 -106 -46 -128 -120 -223 -33 -42 -55 -63
-59 -55 -4 7 -12 39 -19 72 -6 33 -20 87 -30 120 -10 33 -23 89 -30 123 -14
76 -11 80 95 151 158 106 265 153 265 118z m1323 -329 c95 -119 174 -265 216
-402 23 -75 26 -96 11 -96 -5 0 -94 38 -197 83 -103 46 -196 87 -205 90 -9 3
-35 34 -59 69 -23 35 -67 91 -97 126 -30 35 -53 64 -51 66 3 2 155 51 314 101
25 8 36 2 68 -37z m-1775 -130 c17 -68 45 -178 62 -246 28 -108 31 -129 21
-167 -6 -24 -11 -56 -11 -70 0 -24 -2 -25 -22 -14 -13 7 -37 26 -55 43 -228
224 -234 230 -228 253 7 30 54 130 76 163 9 14 35 55 59 93 23 37 48 67 55 67
7 0 24 -50 43 -122z m1067 96 c72 -24 74 -26 63 -86 -12 -65 -77 -291 -86
-300 -22 -21 -60 58 -97 202 -8 30 -23 81 -35 112 -11 32 -20 67 -20 79 0 21
3 22 63 16 34 -3 85 -14 112 -23z m-314 -21 c10 -17 23 -51 29 -75 6 -24 21
-70 34 -103 36 -89 40 -122 16 -135 -38 -20 -59 -9 -155 83 -54 50 -103 95
-110 99 -7 4 -24 23 -39 42 l-26 35 32 18 c62 33 163 72 182 70 11 -1 27 -16
37 -34z m595 -155 c69 -71 94 -105 94 -129 0 -18 -8 -27 -119 -149 -43 -47
-95 -104 -116 -127 -20 -24 -41 -41 -45 -38 -4 3 -10 24 -13 47 -5 46 11 117
48 213 13 33 26 76 30 95 8 47 46 150 54 150 4 0 34 -28 67 -62z m-879 -70
c37 -35 95 -89 128 -120 l60 -57 -30 -42 c-32 -45 -12 -37 -344 -144 -41 -13
-78 -22 -83 -19 -26 16 11 177 68 293 34 68 101 151 124 151 5 0 40 -28 77
-62z m1286 -250 c45 -23 96 -47 112 -53 17 -7 63 -27 103 -45 l72 -33 0 -263
0 -263 -432 -3 c-238 -2 -439 -1 -445 1 -10 2 -13 43 -13 161 l0 158 46 49
c190 197 306 313 313 313 18 0 24 -59 30 -283 l6 -228 27 -17 c23 -14 31 -14
52 -3 13 8 28 25 31 40 8 31 7 313 -1 429 -5 59 -4 82 5 82 6 0 48 -19 94 -42z
m-1971 -35 c26 -27 83 -82 129 -123 46 -41 100 -92 121 -112 l38 -36 0 -186
c0 -102 -4 -186 -8 -186 -9 0 -30 16 -192 145 -62 50 -130 106 -151 126 l-38
36 5 154 c6 165 17 229 38 229 7 0 33 -21 58 -47z m1016 -829 l-3 -876 -80
-32 c-132 -54 -177 -78 -240 -125 -76 -58 -184 -169 -232 -238 -20 -29 -40
-53 -45 -53 -5 0 -7 102 -6 226 l3 227 75 19 c90 23 188 76 252 136 63 59 131
171 159 262 22 74 23 83 25 650 2 316 3 583 3 592 1 22 59 88 77 88 12 0 14
-130 12 -876z m186 847 c15 -16 32 -46 37 -67 10 -43 12 -516 3 -551 -5 -19
-13 -23 -50 -23 l-44 0 0 335 c0 365 0 363 54 306z m-404 -259 l0 -109 -90
-69 c-50 -38 -105 -79 -123 -92 -17 -13 -45 -36 -62 -51 -48 -44 -102 -81
-109 -74 -9 9 -7 366 2 379 7 11 335 121 365 123 15 1 17 -10 17 -107z m-860
-307 c7 -9 65 -57 129 -108 64 -50 122 -97 128 -103 7 -7 28 -22 47 -33 19
-12 37 -33 40 -47 9 -34 6 -363 -3 -368 -6 -4 -54 30 -211 154 -45 36 -92 72
-104 80 -58 39 -57 35 -59 245 -2 197 2 218 33 180z m860 -173 l0 -189 -42
-40 c-24 -21 -77 -65 -118 -96 -41 -31 -104 -80 -139 -107 -35 -28 -68 -50
-72 -50 -16 0 -20 49 -17 209 l3 162 37 32 c39 34 79 66 204 162 42 33 87 70
98 83 42 48 46 35 46 -166z m442 -48 c5 -3 8 -24 8 -48 0 -43 25 -137 61 -231
21 -57 59 -199 59 -225 0 -22 -38 -30 -141 -30 l-79 0 0 268 c0 148 3 272 7
276 7 7 70 -1 85 -10z m266 1 c3 -3 11 -40 18 -83 8 -44 28 -119 45 -168 40
-114 55 -168 63 -225 l7 -46 -41 -7 c-69 -11 -88 -1 -96 52 -9 60 -65 261 -93
330 -13 32 -21 75 -21 109 l0 56 57 -7 c31 -4 59 -9 61 -11z m980 -344 c1
-241 -1 -351 -8 -351 -6 0 -30 10 -53 21 -34 18 -59 22 -139 21 l-98 0 0 47
c0 25 -4 52 -8 59 -5 7 -33 14 -67 15 -66 3 -72 10 -74 89 -1 20 -17 83 -37
140 -48 141 -74 236 -74 279 l0 36 278 -3 277 -2 3 -351z m-700 319 c5 -59 26
-143 63 -255 42 -129 60 -210 52 -232 -3 -9 -24 -13 -63 -13 l-57 0 -12 71
c-11 68 -49 197 -78 268 -19 46 -44 171 -37 182 3 6 33 9 67 7 58 -3 62 -5 65
-28z m-1828 -350 c3 -3 70 -54 150 -114 80 -60 153 -117 163 -128 13 -16 17
-38 17 -99 l0 -79 -37 0 c-95 0 -270 143 -312 256 -26 67 -45 170 -36 192 5
12 9 12 28 -4 12 -11 24 -21 27 -24z m840 5 c0 -104 -54 -227 -137 -309 -61
-60 -165 -116 -216 -116 l-38 0 3 87 3 86 70 54 c39 29 81 61 94 71 13 9 46
35 75 58 28 22 69 54 91 72 22 17 43 31 48 32 4 0 7 -16 7 -35z m1264 -285
c17 0 18 -12 14 -247 -5 -239 -6 -251 -32 -323 -46 -128 -88 -199 -162 -279
-75 -79 -144 -127 -235 -163 -45 -18 -76 -21 -189 -22 -142 0 -192 11 -277 64
l-33 20 0 480 0 480 448 -5 c246 -3 455 -5 466 -5z m346 -129 c14 -10 36 -33
48 -52 20 -29 23 -44 20 -101 -3 -58 -8 -72 -33 -99 -43 -45 -83 -59 -175 -59
l-80 0 0 171 0 172 98 -7 c70 -5 104 -11 122 -25z m-1392 -669 l2 -372 -300 0
-300 0 0 45 c0 45 34 177 65 249 50 117 176 265 296 347 72 49 198 110 219
106 13 -2 15 -53 18 -375z m1472 209 c0 -44 -3 -86 -6 -95 -5 -14 -31 -16
-180 -16 -133 0 -174 3 -174 13 0 6 9 39 19 72 l19 60 103 7 c57 4 127 13 154
21 28 8 53 15 58 16 4 0 7 -35 7 -78z m-2222 -227 c18 -5 22 -13 22 -48 0 -89
28 -82 -308 -76 l-297 5 -3 57 c-3 47 0 57 15 61 27 7 545 8 571 1z m2200 0
c20 -6 22 -13 22 -65 l0 -59 -197 -2 c-109 -2 -225 -3 -258 -4 -33 0 -64 1
-68 4 -5 2 2 16 15 31 13 14 36 43 52 64 l27 37 192 0 c106 0 202 -3 215 -6z
m-2183 -264 c4 -6 4 -29 0 -50 l-7 -40 -293 0 -293 0 -6 23 c-13 48 -7 65 22
70 63 9 571 7 577 -3z m2203 -42 l3 -48 -323 -1 c-178 0 -479 -1 -670 -2 -229
-2 -349 1 -351 8 -2 5 -3 26 -3 45 1 31 4 35 25 32 14 -2 49 -15 80 -28 99
-44 342 -43 437 2 86 41 108 43 459 41 l340 -2 3 -47z"/>
<path d="M0 1720 l0 -80 73 -1 c39 0 114 0 165 1 l92 2 0 -369 c0 -202 3 -398
7 -435 l6 -68 66 0 c39 0 72 5 79 12 9 9 12 119 12 436 l0 423 113 -6 c61 -3
135 -2 162 2 l50 8 3 78 3 77 -416 0 -415 0 0 -80z"/>
<path d="M1202 1783 c-5 -10 -39 -88 -75 -173 -36 -85 -93 -216 -127 -290 -34
-74 -72 -162 -85 -195 -13 -33 -51 -121 -84 -195 -34 -74 -61 -140 -61 -147 0
-10 23 -13 85 -13 l85 0 21 48 c12 26 27 61 35 77 7 17 22 51 33 78 l20 47
234 0 c177 0 237 -3 245 -13 6 -7 20 -38 32 -70 12 -33 28 -71 36 -85 8 -15
14 -32 14 -38 0 -35 73 -59 145 -49 53 8 57 25 25 90 -10 22 -40 90 -66 150
-44 104 -119 274 -203 465 -21 47 -49 112 -62 145 -13 33 -37 87 -54 120 l-30
60 -77 3 c-66 2 -78 0 -86 -15z m179 -423 c38 -87 69 -163 69 -168 0 -6 -21
-13 -47 -15 -69 -8 -270 -3 -279 6 -5 5 -1 22 9 38 9 17 17 38 17 48 0 9 6 25
13 36 8 11 21 38 29 60 9 22 33 76 53 120 37 78 38 80 53 57 8 -12 46 -94 83
-182z"/>
<path d="M1983 1793 c-10 -4 -13 -116 -13 -514 l0 -509 73 0 c43 0 78 5 85 12
9 9 12 70 12 215 l0 203 108 0 c126 0 114 8 211 -135 33 -49 81 -117 105 -150
25 -33 56 -77 68 -98 13 -20 30 -39 38 -42 29 -9 166 -13 179 -6 17 11 2 38
-83 156 -36 50 -89 124 -119 165 -30 41 -62 87 -72 102 l-17 28 46 19 c93 40
156 133 164 242 8 116 -38 209 -132 264 -77 45 -150 55 -406 54 -129 0 -241
-3 -247 -6z m467 -163 c63 0 68 -2 103 -37 35 -34 37 -40 37 -101 0 -59 -2
-66 -34 -98 -33 -33 -36 -34 -118 -34 -47 0 -133 -3 -191 -7 l-107 -6 0 148 0
148 122 -6 c66 -4 151 -7 188 -7z"/>
<path d="M2890 1791 c0 -4 10 -23 23 -42 13 -19 61 -90 108 -159 46 -69 87
-127 90 -130 15 -13 130 -173 144 -199 12 -24 15 -72 15 -248 0 -120 4 -224 8
-231 11 -17 139 -19 155 -3 8 8 12 77 12 234 l0 222 28 45 c15 25 52 79 82
120 30 41 79 108 107 149 29 41 79 109 111 152 31 42 57 82 57 88 0 7 -31 11
-88 11 -102 0 -92 7 -179 -121 -130 -191 -164 -239 -172 -239 -5 0 -11 -9 -14
-20 -3 -11 -9 -20 -14 -20 -9 1 -93 114 -191 260 -99 146 -91 140 -194 140
-48 0 -88 -4 -88 -9z"/>
<path d="M1002 438 c-15 -15 -15 -41 0 -56 9 -9 9 -18 0 -37 -7 -14 -12 -70
-12 -124 0 -81 3 -101 18 -114 9 -9 23 -13 29 -9 13 8 22 320 10 340 -10 15
-29 16 -45 0z"/>
<path d="M1593 430 c-7 -11 -13 -35 -13 -54 l0 -34 -49 1 c-29 0 -56 -5 -67
-14 -23 -19 -54 -88 -54 -122 0 -70 68 -126 136 -112 21 5 46 7 55 6 34 -4 40
22 37 185 -3 132 -6 159 -18 162 -8 1 -21 -7 -27 -18z m-22 -151 c45 -45 1
-149 -55 -135 -33 8 -47 42 -39 93 10 62 54 82 94 42z"/>
<path d="M3390 429 c-7 -11 -8 -28 -4 -37 4 -9 7 -80 8 -156 1 -135 6 -155 33
-138 13 8 22 319 10 340 -12 18 -35 14 -47 -9z"/>
<path d="M1834 409 c-3 -6 -1 -21 6 -34 10 -18 9 -28 -5 -55 -20 -38 -14 -47
20 -32 36 16 62 15 69 -4 11 -29 6 -34 -38 -34 -36 0 -48 -5 -65 -26 -30 -38
-28 -87 5 -113 28 -22 69 -27 93 -12 9 6 22 6 32 0 14 -7 22 -4 34 13 23 34
10 186 -18 211 -11 9 -28 17 -37 17 -9 0 -24 6 -34 13 -15 11 -16 18 -7 34 8
17 7 22 -5 27 -24 9 -42 7 -50 -5z m106 -220 c0 -6 -5 -19 -10 -30 -20 -37
-89 -14 -74 25 7 18 84 23 84 5z"/>
<path d="M1917 413 c-11 -10 -8 -20 8 -37 21 -20 45 -10 45 20 0 18 -5 24 -23
24 -13 0 -27 -3 -30 -7z"/>
<path d="M2775 412 c-3 -3 -5 -12 -5 -19 0 -8 -9 -27 -21 -42 -18 -25 -21 -40
-18 -115 4 -77 7 -88 31 -113 21 -20 36 -26 65 -25 21 1 53 2 71 3 26 0 35 6
43 25 12 34 0 191 -17 205 -23 19 -33 0 -31 -65 2 -60 -13 -110 -38 -128 -16
-12 -23 -10 -45 12 -17 17 -20 33 -20 113 0 77 3 95 18 108 32 28 40 29 57 12
19 -18 50 -7 50 18 0 10 -17 14 -67 15 -37 1 -70 -1 -73 -4z"/>
<path d="M2498 399 c-10 -5 -18 -16 -18 -23 0 -8 -7 -19 -15 -26 -8 -7 -15
-20 -15 -30 0 -10 7 -23 15 -30 11 -9 15 -32 15 -80 0 -84 24 -123 74 -118 38
4 46 30 13 45 -18 9 -26 21 -29 50 -5 45 6 106 21 111 16 5 13 32 -4 38 -9 4
-15 19 -15 40 0 35 -11 42 -42 23z"/>
<path d="M393 342 c-43 -7 -77 -75 -55 -108 4 -6 26 -21 50 -33 57 -29 58 -58
2 -67 -23 -4 -39 -9 -38 -13 19 -37 45 -71 56 -71 6 0 12 -5 12 -11 0 -5 -5
-7 -11 -3 -10 6 -29 -12 -29 -28 0 -5 18 -8 41 -8 l40 0 -6 55 c-6 45 -5 55 8
55 37 0 45 105 8 117 -9 2 -31 11 -49 19 -39 17 -40 45 -2 54 53 13 28 51 -27
42z"/>
<path d="M3140 341 c-24 -7 -25 -9 -27 -111 -1 -56 3 -112 8 -122 19 -36 34
-13 40 60 6 78 31 127 64 127 19 0 43 30 33 40 -10 10 -90 14 -118 6z"/>
<path d="M680 320 c-11 -11 -20 -33 -20 -49 0 -16 -7 -45 -16 -66 -21 -51 -11
-82 31 -102 30 -14 41 -15 70 -4 19 7 40 9 45 6 6 -4 17 -1 25 5 11 9 15 35
15 97 0 78 -2 86 -26 108 -34 32 -95 34 -124 5z m64 -26 c9 -3 16 -15 16 -25
0 -14 -7 -19 -29 -19 -38 0 -59 24 -34 39 21 12 26 13 47 5z m26 -114 c0 -26
-19 -34 -54 -20 -23 9 -26 13 -16 25 7 8 25 15 41 15 22 0 29 -5 29 -20z"/>
<path d="M2178 323 c-42 -48 -26 -101 37 -127 25 -11 35 -21 35 -37 0 -18 -4
-20 -22 -14 -57 17 -68 17 -75 0 -9 -24 30 -55 69 -55 16 0 42 7 58 15 26 13
30 21 30 55 0 47 -25 78 -70 87 -20 4 -30 12 -30 24 0 21 31 33 61 24 24 -8
41 9 32 32 -8 21 -106 17 -125 -4z"/>
</g>
</svg>
