<svg width="18" height="22" viewBox="0 0 18 22" fill="none" xmlns="http://www.w3.org/2000/svg">
<path d="M9 0.930664C6.81273 0.933145 4.71575 1.80314 3.16911 3.34977C1.62247 4.89641 0.752481 6.99339 0.75 9.18066C0.75 16.24 8.25 21.5744 8.56875 21.7994C8.69649 21.8845 8.84653 21.9298 9 21.9298C9.15347 21.9298 9.30351 21.8845 9.43125 21.7994C9.75 21.5744 17.25 16.24 17.25 9.18066C17.2475 6.99339 16.3775 4.89641 14.8309 3.34977C13.2843 1.80314 11.1873 0.933145 9 0.930664V0.930664ZM9 6.18066C9.59334 6.18066 10.1734 6.35661 10.6667 6.68625C11.1601 7.0159 11.5446 7.48443 11.7716 8.03261C11.9987 8.58079 12.0581 9.18399 11.9424 9.76593C11.8266 10.3479 11.5409 10.8824 11.1213 11.302C10.7018 11.7215 10.1672 12.0073 9.58527 12.123C9.00333 12.2388 8.40013 12.1794 7.85195 11.9523C7.30377 11.7252 6.83524 11.3407 6.50559 10.8474C6.17595 10.354 6 9.77401 6 9.18066C6 8.38501 6.31607 7.62195 6.87868 7.05934C7.44129 6.49673 8.20435 6.18066 9 6.18066V6.18066Z" fill="#0F0F0F"/>
<path d="M9 0.930664C6.81273 0.933145 4.71575 1.80314 3.16911 3.34977C1.62247 4.89641 0.752481 6.99339 0.75 9.18066C0.75 16.24 8.25 21.5744 8.56875 21.7994C8.69649 21.8845 8.84653 21.9298 9 21.9298C9.15347 21.9298 9.30351 21.8845 9.43125 21.7994C9.75 21.5744 17.25 16.24 17.25 9.18066C17.2475 6.99339 16.3775 4.89641 14.8309 3.34977C13.2843 1.80314 11.1873 0.933145 9 0.930664V0.930664ZM9 6.18066C9.59334 6.18066 10.1734 6.35661 10.6667 6.68625C11.1601 7.0159 11.5446 7.48443 11.7716 8.03261C11.9987 8.58079 12.0581 9.18399 11.9424 9.76593C11.8266 10.3479 11.5409 10.8824 11.1213 11.302C10.7018 11.7215 10.1672 12.0073 9.58527 12.123C9.00333 12.2388 8.40013 12.1794 7.85195 11.9523C7.30377 11.7252 6.83524 11.3407 6.50559 10.8474C6.17595 10.354 6 9.77401 6 9.18066C6 8.38501 6.31607 7.62195 6.87868 7.05934C7.44129 6.49673 8.20435 6.18066 9 6.18066V6.18066Z" fill="#E6823D" fill-opacity="0.03"/>
</svg>
