<svg width="20" height="21" viewBox="0 0 20 21" fill="none" xmlns="http://www.w3.org/2000/svg">
<path d="M10 0.680664C8.07164 0.680664 6.18657 1.25249 4.58319 2.32384C2.97982 3.39518 1.73013 4.91792 0.992179 6.6995C0.254225 8.48108 0.061142 10.4415 0.437348 12.3328C0.813554 14.2241 1.74215 15.9614 3.10571 17.325C4.46928 18.6885 6.20656 19.6171 8.09787 19.9933C9.98919 20.3695 11.9496 20.1764 13.7312 19.4385C15.5127 18.7005 17.0355 17.4509 18.1068 15.8475C19.1782 14.2441 19.75 12.359 19.75 10.4307C19.745 7.84633 18.7162 5.36925 16.8888 3.54185C15.0614 1.71444 12.5843 0.68562 10 0.680664V0.680664ZM15.25 11.1807H10C9.80109 11.1807 9.61033 11.1016 9.46967 10.961C9.32902 10.8203 9.25 10.6296 9.25 10.4307V5.18066C9.25 4.98175 9.32902 4.79099 9.46967 4.65033C9.61033 4.50968 9.80109 4.43066 10 4.43066C10.1989 4.43066 10.3897 4.50968 10.5303 4.65033C10.671 4.79099 10.75 4.98175 10.75 5.18066V9.68066H15.25C15.4489 9.68066 15.6397 9.75968 15.7803 9.90033C15.921 10.041 16 10.2318 16 10.4307C16 10.6296 15.921 10.8203 15.7803 10.961C15.6397 11.1016 15.4489 11.1807 15.25 11.1807Z" fill="#0F0F0F"/>
<path d="M10 0.680664C8.07164 0.680664 6.18657 1.25249 4.58319 2.32384C2.97982 3.39518 1.73013 4.91792 0.992179 6.6995C0.254225 8.48108 0.061142 10.4415 0.437348 12.3328C0.813554 14.2241 1.74215 15.9614 3.10571 17.325C4.46928 18.6885 6.20656 19.6171 8.09787 19.9933C9.98919 20.3695 11.9496 20.1764 13.7312 19.4385C15.5127 18.7005 17.0355 17.4509 18.1068 15.8475C19.1782 14.2441 19.75 12.359 19.75 10.4307C19.745 7.84633 18.7162 5.36925 16.8888 3.54185C15.0614 1.71444 12.5843 0.68562 10 0.680664V0.680664ZM15.25 11.1807H10C9.80109 11.1807 9.61033 11.1016 9.46967 10.961C9.32902 10.8203 9.25 10.6296 9.25 10.4307V5.18066C9.25 4.98175 9.32902 4.79099 9.46967 4.65033C9.61033 4.50968 9.80109 4.43066 10 4.43066C10.1989 4.43066 10.3897 4.50968 10.5303 4.65033C10.671 4.79099 10.75 4.98175 10.75 5.18066V9.68066H15.25C15.4489 9.68066 15.6397 9.75968 15.7803 9.90033C15.921 10.041 16 10.2318 16 10.4307C16 10.6296 15.921 10.8203 15.7803 10.961C15.6397 11.1016 15.4489 11.1807 15.25 11.1807Z" fill="#E6823D" fill-opacity="0.03"/>
</svg>
